<?xml version="1.0" encoding="utf-8"?>
<!-- Generator: Adobe Illustrator 16.0.3, SVG Export Plug-In . SVG Version: 6.00 Build 0)  -->
<!DOCTYPE svg PUBLIC "-//W3C//DTD SVG 1.1//EN" "http://www.w3.org/Graphics/SVG/1.1/DTD/svg11.dtd">
<svg version="1.1" id="Lager_1" xmlns="http://www.w3.org/2000/svg" xmlns:xlink="http://www.w3.org/1999/xlink" x="0px" y="0px"
	 width="18px" height="18px" viewBox="0 0 18 18" enable-background="new 0 0 18 18" xml:space="preserve">
<path fill="#FFFFFF" d="M18,14.625C18,16.488,16.488,18,14.625,18H12c-0.375,0-0.762,0-0.762-0.563c0-0.293,0-1.593,0-2.801
	c0-0.844-0.28-1.383-0.609-1.664c2.005-0.222,4.113-0.984,4.113-4.441c0-0.984-0.352-1.793-0.925-2.414
	c0.093-0.234,0.397-1.148-0.094-2.391c-0.751-0.234-2.473,0.926-2.473,0.926C10.536,4.454,9.762,4.348,9,4.348
	S7.464,4.454,6.75,4.652c0,0-1.723-1.16-2.484-0.926c-0.48,1.243-0.176,2.157-0.082,2.391c-0.574,0.621-0.925,1.43-0.925,2.414
	c0,3.446,2.097,4.22,4.101,4.441c-0.258,0.234-0.492,0.622-0.574,1.207c-0.516,0.235-1.829,0.634-2.614-0.75
	c-0.492-0.855-1.383-0.925-1.383-0.925c-0.878-0.013-0.059,0.55-0.059,0.55c0.586,0.27,0.996,1.313,0.996,1.313
	c0.527,1.604,3.035,1.065,3.035,1.065c0,0.75,0.012,1.793,0.012,2.004C6.773,18,6.375,18,6,18H3.375C1.512,18,0,16.488,0,14.625
	V3.375C0,1.512,1.512,0,3.375,0h11.25C16.488,0,18,1.512,18,3.375V14.625z M3.258,12.95c-0.071-0.035-0.106-0.095-0.083-0.142
	c0.023-0.035,0.083-0.047,0.152-0.022c0.07,0.034,0.105,0.093,0.083,0.141C3.387,12.961,3.316,12.984,3.258,12.95z M3.586,13.289
	c-0.059-0.07-0.07-0.152-0.023-0.188c0.046-0.047,0.128-0.022,0.187,0.035c0.059,0.07,0.07,0.152,0.023,0.188
	C3.727,13.372,3.645,13.348,3.586,13.289z M4.125,13.852c-0.047,0.036-0.141,0-0.199-0.082s-0.059-0.175,0-0.21
	c0.059-0.048,0.152-0.013,0.199,0.069C4.184,13.711,4.184,13.806,4.125,13.852z M4.383,14.309c-0.083-0.07-0.106-0.175-0.047-0.222
	c0.047-0.06,0.152-0.048,0.234,0.035c0.07,0.069,0.094,0.175,0.047,0.223C4.57,14.402,4.464,14.391,4.383,14.309z M5.063,14.707
	c-0.106-0.023-0.176-0.105-0.152-0.175c0.023-0.071,0.128-0.105,0.223-0.082c0.105,0.034,0.175,0.117,0.152,0.187
	C5.262,14.707,5.156,14.742,5.063,14.707z M5.836,14.824c-0.117,0.012-0.199-0.046-0.199-0.128c0-0.071,0.082-0.129,0.188-0.129
	c0.105-0.013,0.199,0.047,0.199,0.129C6.023,14.766,5.941,14.824,5.836,14.824z M6.539,14.742c-0.105,0.023-0.2-0.023-0.211-0.093
	c-0.012-0.082,0.059-0.152,0.164-0.177c0.105-0.012,0.199,0.036,0.211,0.106C6.714,14.649,6.645,14.719,6.539,14.742z"/>
</svg>
