<?xml version="1.0" encoding="utf-8"?>
<!-- Generator: Adobe Illustrator 16.0.3, SVG Export Plug-In . SVG Version: 6.00 Build 0)  -->
<!DOCTYPE svg PUBLIC "-//W3C//DTD SVG 1.1//EN" "http://www.w3.org/Graphics/SVG/1.1/DTD/svg11.dtd">
<svg version="1.1" id="Lager_1" xmlns="http://www.w3.org/2000/svg" xmlns:xlink="http://www.w3.org/1999/xlink" x="0px" y="0px"
	 width="101.912px" height="27px" viewBox="0 0 101.912 27" enable-background="new 0 0 101.912 27" xml:space="preserve">
<g>
	<polygon fill="#000333" points="3.603,13.295 3.603,22.563 0,22.563 0,0.535 3.603,0.535 3.603,9.803 11.187,9.803 11.187,0.535 
		14.806,0.535 14.806,22.563 11.187,22.563 11.187,13.295 	"/>
	<polygon fill="#000333" points="30.383,0.535 30.383,3.996 21.651,3.996 21.651,9.803 30.383,9.803 30.383,13.295 21.651,13.295 
		21.651,19.102 30.383,19.102 30.383,22.563 18.047,22.563 18.047,0.535 	"/>
	<polygon fill="#000333" points="47.613,22.973 37.463,8.748 37.463,22.563 33.859,22.563 33.859,0.535 36,0.535 45.897,14.413 
		45.897,0.535 49.516,0.535 49.516,22.973 	"/>
	<path fill="#000333" d="M69.642,16.631l2.674,2.36c-2.8,2.539-5.664,3.808-8.591,3.808c-3.146,0-5.822-1.099-8.024-3.296
		c-2.202-2.196-3.305-4.849-3.305-7.953c0-3.084,1.103-5.73,3.305-7.938C57.903,1.404,60.579,0.3,63.725,0.3
		c2.927,0,5.791,1.273,8.591,3.823l-2.674,2.359c-2.015-1.794-3.988-2.69-5.917-2.69c-2.107,0-3.921,0.755-5.437,2.267
		c-1.517,1.509-2.274,3.341-2.274,5.491c0,2.16,0.758,3.994,2.274,5.499c1.516,1.505,3.329,2.258,5.437,2.258
		C65.654,19.307,67.627,18.414,69.642,16.631"/>
	<path fill="#B48E61" d="M76.312,22.987c0,1.134-0.384,2.085-1.148,2.856C74.399,26.614,73.455,27,72.332,27v-1.258
		c0.767,0,1.416-0.264,1.952-0.787c0.513-0.514,0.77-1.222,0.77-2.125V0.315h1.259V22.987z"/>
	<path fill="#B48E61" d="M90.488,1.274c-2.789,0-5.176,0.991-7.158,2.975c-1.983,1.981-2.975,4.368-2.975,7.159
		c0,2.8,0.991,5.191,2.975,7.175c1.982,1.981,4.369,2.973,7.158,2.973c2.801,0,5.192-0.991,7.176-2.973
		c1.982-1.983,2.974-4.375,2.974-7.175c0-2.791-0.991-5.178-2.974-7.159C95.68,2.266,93.289,1.274,90.488,1.274 M98.568,3.344
		c2.229,2.229,3.344,4.917,3.344,8.064c0,3.156-1.114,5.851-3.344,8.079c-2.229,2.229-4.923,3.344-8.08,3.344
		c-3.146,0-5.834-1.114-8.063-3.344c-2.229-2.229-3.344-4.923-3.344-8.079c0-3.147,1.114-5.836,3.344-8.064S87.342,0,90.488,0
		C93.645,0,96.338,1.115,98.568,3.344"/>
</g>
</svg>
