<?xml version="1.0" encoding="utf-8"?>
<!-- Generator: Adobe Illustrator 16.0.3, SVG Export Plug-In . SVG Version: 6.00 Build 0)  -->
<!DOCTYPE svg PUBLIC "-//W3C//DTD SVG 1.1//EN" "http://www.w3.org/Graphics/SVG/1.1/DTD/svg11.dtd">
<svg version="1.1" id="Lager_1" xmlns="http://www.w3.org/2000/svg" xmlns:xlink="http://www.w3.org/1999/xlink" x="0px" y="0px"
	 width="18px" height="18px" viewBox="0 0 18 18" enable-background="new 0 0 18 18" xml:space="preserve">
<path fill="#FFFFFF" d="M18,14.625C18,16.488,16.488,18,14.626,18H3.374C1.512,18,0,16.488,0,14.625V3.376C0,1.513,1.512,0,3.374,0
	h11.252C16.488,0,18,1.513,18,3.376V14.625z M4.148,3.024c-0.926,0-1.535,0.609-1.535,1.406c0,0.773,0.586,1.405,1.5,1.405h0.013
	c0.947,0,1.534-0.632,1.534-1.405C5.648,3.634,5.073,3.024,4.148,3.024z M5.484,15.07V6.938H2.777v8.133H5.484z M15.222,15.07
	v-4.664c0-2.496-1.336-3.655-3.117-3.655c-1.451,0-2.096,0.809-2.45,1.371h0.025V6.938H6.973c0,0,0.036,0.762,0,8.133h2.708v-4.546
	c0-0.234,0.011-0.481,0.082-0.656c0.198-0.48,0.644-0.985,1.393-0.985c0.973,0,1.359,0.739,1.359,1.841v4.347H15.222z"/>
</svg>
