<?xml version="1.0" encoding="utf-8"?>
<!-- Generator: Adobe Illustrator 16.0.3, SVG Export Plug-In . SVG Version: 6.00 Build 0)  -->
<!DOCTYPE svg PUBLIC "-//W3C//DTD SVG 1.1//EN" "http://www.w3.org/Graphics/SVG/1.1/DTD/svg11.dtd">
<svg version="1.1" id="Lager_1" xmlns="http://www.w3.org/2000/svg" xmlns:xlink="http://www.w3.org/1999/xlink" x="0px" y="0px"
	 width="18px" height="18px" viewBox="0 0 18 18" enable-background="new 0 0 18 18" xml:space="preserve">
<path fill="#FFFFFF" d="M18,14.625C18,16.488,16.488,18,14.625,18H3.375C1.512,18,0,16.488,0,14.625V3.375C0,1.511,1.512,0,3.375,0
	h11.249C16.488,0,18,1.511,18,3.375V14.625z M13.582,6.046c0.516-0.305,0.904-0.796,1.09-1.371c-0.48,0.281-1.008,0.493-1.57,0.598
	C12.656,4.792,12.014,4.5,11.309,4.5c-1.359,0-2.46,1.102-2.46,2.461c0,0.188,0.012,0.387,0.059,0.563
	C6.855,7.417,5.04,6.445,3.821,4.945C3.609,5.308,3.48,5.742,3.48,6.187c0,0.855,0.398,1.605,1.067,2.051
	C4.137,8.226,3.75,8.109,3.375,7.933c0,0,0,0.012,0,0.023c0,1.195,0.902,2.192,2.027,2.415c-0.211,0.059-0.375,0.094-0.598,0.094
	c-0.153,0-0.305-0.023-0.457-0.047c0.316,0.973,1.218,1.688,2.296,1.711c-0.844,0.656-1.898,1.055-3.059,1.055
	c-0.199,0-0.399-0.012-0.586-0.035c1.09,0.691,2.379,1.103,3.773,1.103c4.523,0,7.006-3.75,7.006-7.008c0-0.105,0-0.21-0.012-0.316
	c0.48-0.339,0.902-0.773,1.23-1.277C14.555,5.847,14.085,5.977,13.582,6.046z"/>
</svg>
